/* XPM */
static char * C_xpm[] = {
"32 32 53 1",
" 	c #40A0B0",
".	c #68C0C0",
"+	c #50B0C0",
"@	c #E0B038",
"#	c #B07000",
"$	c #B0B038",
"%	c #B0B070",
"&	c #707038",
"*	c #90D8C0",
"=	c #707000",
"-	c #703838",
";	c #E0B070",
">	c #E07000",
",	c #703800",
"'	c #E0E070",
")	c #F8F8E0",
"!	c #707070",
"~	c #3090A0",
"{	c #F8E038",
"]	c #B07038",
"^	c #F8E070",
"/	c #B07070",
"(	c #808080",
"_	c #F8B038",
":	c #F8E0B0",
"<	c #E0E038",
"[	c #F8F8B0",
"}	c #606060",
"|	c #E0B000",
"1	c #F8B0B0",
"2	c #E0B0B0",
"3	c #E0E0E0",
"4	c #383870",
"5	c #505050",
"6	c #E0E0B0",
"7	c #000070",
"8	c #C8C8C8",
"9	c #383838",
"0	c #003870",
"a	c #B0B0B0",
"b	c #7070B0",
"c	c #387038",
"d	c #7070E0",
"e	c #B0B0E0",
"f	c #B0B0F8",
"g	c #F87038",
"h	c #F87070",
"i	c #E07070",
"j	c #70B0E0",
"k	c #3870B0",
"l	c #70B0F8",
"m	c #E03838",
"n	c #003838",
" .++.+.. .++.+....@.++. ..+.++. ",
" ++++.+. ++++.+..@#++++ .+.++++ ",
" +++.+.. +++.+..$%+.+++ ..+.+++ ",
" .+.+... .+.+&&.#..+.+. ...+.+. ",
" +.+...* +.+====-=..+.+ *...+.+ ",
"+.+....*+$@;#>##,,#==+.+*....+.+",
" ....*** &&');;';@;$;!. ***.... ",
"~ + + ++~ =@);@{@]^;@= ~++ + + ~",
".+..&/+(%-#_@:%<[;]'@#+%++/}..+.",
"+.+./&&]%-#|1:)2@::@@#.%]&]/.+.+",
".+..;/]%]2#]:34)3532$#+]%&]%..+.",
"+... ]]]-6]]:37))73:]$6-]%]!...+",
"...* 5-]]!2/284))736/2(%&-5 *...",
"...* .+]/49]2:)))):2/44/]+. *...",
".*** ..0444$%::::::%$4444.. ***.",
"+ ++  + +4]ab&/%%/]b;]0+ +  ++ +",
" .++.+.. c$db-bbbb-bd]& ..+.++. ",
" ++++.+. +++5e822ee-+++ .+.++++ ",
" +++.+.. +++5f2ghif-+++ ..+.+++ ",
" .+.+... .+.4dfiifd4.+. ...+.+. ",
" +.+...* +.+9}d//j4,+.+ *...+.+ ",
"+.+....*+.+.k--6:--bgi.+*....+.+",
" ....*** ...kljaajlbm/. ***.... ",
"~ + + ++~ + 4kdljdk4 + ~++ + + ~",
".+.. .++.+..0449944n..+.++. ..+.",
"+.+. ++++.+.04404444.+.++++ .+.+",
".+.. +++.+..55555455..+.+++ ..+.",
"+... .+.+... -]5-]& ...+.+. ...+",
"...* +.+...*5&]-5]-5*...+.+ *...",
"...* .+....*-]]--]]&*....+. *...",
".*** ....***&;].}]%]***.... ***.",
"+ ++  + + ++%;!  (;%++ + +  ++ +"};
