/* XPM */
static char * DEAD_xpm[] = {
"32 32 55 1",
" 	c #40A0B0",
".	c #68C0C0",
"+	c #50B0C0",
"@	c #90D8C0",
"#	c #707000",
"$	c #707038",
"%	c #B07038",
"&	c #B0B070",
"*	c #3090A0",
"=	c #B07000",
"-	c #E07000",
";	c #E0B038",
">	c #F8B038",
",	c #E0B070",
"'	c #703800",
")	c #E0E0B0",
"!	c #F8E070",
"~	c #E0E070",
"{	c #F8E0B0",
"]	c #383838",
"^	c #F8F8E0",
"/	c #B0B0B0",
"(	c #F8B0B0",
"_	c #E0B0B0",
":	c #383870",
"<	c #505050",
"[	c #B0E070",
"}	c #989898",
"|	c #606060",
"1	c #703838",
"2	c #282828",
"3	c #B0B0E0",
"4	c #F8E0E0",
"5	c #181818",
"6	c #808080",
"7	c #3838B0",
"8	c #707070",
"9	c #E0E038",
"0	c #3870B0",
"a	c #B07070",
"b	c #000000",
"c	c #003838",
"d	c #7070B0",
"e	c #70B0F8",
"f	c #E07038",
"g	c #B03838",
"h	c #70B0E0",
"i	c #B0B0F8",
"j	c #F87070",
"k	c #B070B0",
"l	c #B0E0F8",
"m	c #C8C8C8",
"n	c #F8F8B0",
"o	c #B0B038",
"p	c #380000",
" .++.+.. .++.+....+.++. ..+.++. ",
" ++++.+. ++++.+..+.++++ .+.++++ ",
" +++.+.. +++.+....+.+++ ..+.+++ ",
" .+.+... .+.+......+.+. ...+.+. ",
" +.+...@ +.+...@@...+.+ @...+.+ ",
"+.+....@+.+....@@...#+.+@....+.+",
" ....@@@ ....@@@@@$$%&$ @@@.... ",
"* + + ++* + + ++%#==-;&$&#&+ + *",
".+.. .++.+.. .+$=;=>>;%,%,=%'.+.",
"+.+. ++++.+. );&;!;~,{{;;#+ .+.+",
".+.. +++.+.. %]{^,,{{/{(,%& ..+.",
"+... .+.+... .+{{,{{_::{,&;<...+",
"...@ +.+...@~[$$_({^^{}{,%;'@...",
"...@ .+....@]:%$,{^^^^{(|&;1@...",
".@@@ ....@@@2%~3/,{4^^{(<&'5@@@.",
"+ ++  +<<6|:7890|a,{{{{,%;bc++ +",
" .++.+$%%,_::2de3fga_{{,%5b.++. ",
" ++++<%,,%1552hi_j3k</a1bb.++++ ",
" +++.+%%&$b+.]'&~_li8m6bc.+.+++ ",
" .+.+..]55+.0eimn,3i|oo5...+.+. ",
" +.+...@ +.::dhli31|2::b@...+.+ ",
"+.+....@+.::7:22dhdp5::b@....+.+",
" ....@@@ .:77:2:7775268b@@@.... ",
"* + + ++*]:::25:7:25<,&5++ + + *",
".+.. .++<&,:2b+:7:21%%%5++. ..+.",
"+.+. a$<%,,<b++:7:g%&{,5+++ .+.+",
".+.. ]$%a,$2c+<&)|g1%,%b+++ ..+.",
"+... .5211bb .<%,$b .115.+. ...+",
"...@ +.222b@ +.$&2b @...+.+ @...",
"...@ .+.]2c@ .]1155 @....+. @...",
".@@@ ....@@@ .5555c @@@.... @@@.",
"+ ++  + + ++  +222  ++ + +  ++ +"};
