/* XPM */
static char *_eccff763d5141b28311903493dfdca8MvwO7sydAgEb3rGX[] = {
/* columns rows colors chars-per-pixel */
"32 32 38 1 ",
"  c None",
". c #181818",
"X c #282828",
"o c gray22",
"O c #703838",
"+ c #707038",
"@ c #703870",
"# c #505050",
"$ c #606060",
"% c gray44",
"& c #B03838",
"* c #B07038",
"= c #E07038",
"- c #B07070",
"; c #E07070",
": c #B0B070",
"> c #E0B070",
", c #F8B070",
"< c #E0E070",
"1 c #3838B0",
"2 c #7038B0",
"3 c #3838E0",
"4 c #3838F8",
"5 c #7070E0",
"6 c #7070F8",
"7 c #B070E0",
"8 c #808080",
"9 c gray69",
"0 c #E0B0B0",
"q c #F8B0B0",
"w c #E0E0B0",
"e c #F8E0B0",
"r c #F8F8B0",
"t c #B0B0F8",
"y c gray88",
"u c #F8E0E0",
"i c #F8F8E0",
"p c #F8F8F8",
/* pixels */
"                                ",
"                                ",
"                                ",
"       O                *       ",
"       O*               *o      ",
"       O*O              OX      ",
"       O*=*            OOX      ",
"       OO*=*           OO.      ",
"       XO***>          OO.      ",
"        OO-*>>O        *o.      ",
"        O*O-->>+      *-X       ",
"  o      O*O-->>-     --X       ",
" XO    oOO&**+;>>$ #  -;oOo     ",
" OO   OO**-;;;;->----*->OOOXX   ",
" OO  OOOoOO*>;>,>w>>;->;-OXXXo  ",
"&Ooo X     Xo+->>qe,>>;--.      ",
"*Ooo       oo@255ee,>>>--4      ",
"*OoX      #$-24667ee,>>;-33     ",
"OOoX    +--*+146t40qq>>;*33     ",
"OOoX +OO**-O+*23469-*++##11     ",
"OOOOOoOO#Oo+++->weiiiirw:%#     ",
"OOX.......X+**>wuiiywww098      ",
"*;Oo   oO#++*:wripppiiiiiw:     ",
">,-   +*--++*>eripppppiiiiw%    ",
">e-XO#*#--++*><riippppiiiir:    ",
"->XOO*#+Oo++**>eriiiiiiiirw:+   ",
"OooOX...Xo++***>>eerrrreew:*#   ",
"X.Oo.X...->>++***:>>>>>>>:*+-*  ",
"  ..XXXX---e0+++*********++$qX  ",
"    .X--&O*O0-++++++++++++o---* ",
"      o$-;-*&,O##OO####oooo;>,>-",
"        --+O#-$ooooooooooXo#O-++"
};
