/* XPM */
static char * Djinn_xpm[] = {
"32 32 42 1",
" 	c #40A0B0",
".	c #68C0C0",
"+	c #50B0C0",
"@	c #703838",
"#	c #B07038",
"$	c #90D8C0",
"%	c #383838",
"&	c #282828",
"*	c #E07038",
"=	c #3090A0",
"-	c #181818",
";	c #E0B070",
">	c #B07070",
",	c #707038",
"'	c #B03838",
")	c #E07070",
"!	c #606060",
"~	c #505050",
"{	c #F8B070",
"]	c #E0E0B0",
"^	c #F8B0B0",
"/	c #F8E0B0",
"(	c #703870",
"_	c #7038B0",
":	c #7070E0",
"<	c #3838F8",
"[	c #7070F8",
"}	c #B070E0",
"|	c #3838E0",
"1	c #3838B0",
"2	c #B0B0F8",
"3	c #E0B0B0",
"4	c #B0B0B0",
"5	c #F8F8E0",
"6	c #F8F8B0",
"7	c #B0B070",
"8	c #707070",
"9	c #F8E0E0",
"0	c #E0E0E0",
"a	c #808080",
"b	c #F8F8F8",
"c	c #E0E070",
" .++.+.. .++.+....+.++. ..+.++. ",
" ++++.+. ++++.+..+.++++ .+.++++ ",
" +++.+.. +++.+....+.+++ ..+.+++ ",
" .+.+..@ .+.+......+.+. #..+.+. ",
" +.+...@#+.+...$$...+.+ #%..+.+ ",
"+.+....@#@+....$$....+.+@&...+.+",
" ....$$@#*#..$$$$$$....@@&$.... ",
"= + + +@@#*#+ ++++ + + @@- + + =",
".+.. .+&@###;.++++. ..+@@-. ..+.",
"+.+. +++@@>#;;@++++ .+.#%-+ .+.+",
".+.. +++@#@>>;;,+++ ..#>&++ ..+.",
"+.%. .+.+@#@>>;;>+. ..>>&+. ...+",
".&@$ +.%@@'##,);;!+~$.>)%@% $...",
".@@$ .@@##>))))>;>>>>#>;@@@&&...",
".@@$ @@@%@@#;);{;];;)>;)>@&&&%$.",
"'@%% &+ + +&%,>;;^/{;;)>>-  ++ +",
"#@%%.+.. .+%%(_:://{;;;>><+.++. ",
"#@%&+.+. +~!>_<[[}//{;;)>||++++ ",
"@@%&.+..,>>#,1<[2<3^^;;)#||.+++ ",
"@@%&+,@@##>@,#_|<[4>#,,~~11+.+. ",
"@@@@@%@@~@%,,,>;]/55556]78~.+.+ ",
"@@&-------&,##;]9550]]]34a...+.+",
"#)@%.$$%@~,,#7]65bbb55555]7.... ",
";{> + ,#>>,,#;/65bbbbb5555]8 + =",
";/>&@~#~>>,,#;c655bbbb555567..+.",
">;&@@#~,@%,,##;/6555555556]7,+.+",
"@%%@&---&%,,###;;//6666//]7#~.+.",
"&-@%-&--->;;,,###7;;;;;;;7#,>#.+",
"..--&&&&>>>/3,,,#########,,!^&..",
"...$-&>>'@#@3>,,,,,,,,,,,,%>>>#.",
".$$$ .%!>)>#'{@~~@@~~~~%%%%);{;>",
"+ ++  + >>,@~>!%%%%%%%%%%&%~@>,,"};
