/* XPM */
static char *f1ba54775aeb49f3b293981e20bc12d7K7S7UcOkn4fjDgQU[] = {
/* columns rows colors chars-per-pixel */
"32 32 52 1 ",
"  c #40A0B0",
". c #68C0C0",
"X c #50B0C0",
"o c #B0B038",
"O c #707038",
"+ c #B07038",
"@ c #707000",
"# c #B07000",
"$ c #90D8C0",
"% c gray22",
"& c #703838",
"* c #E0B070",
"= c #E0B038",
"- c #3090A0",
"; c #E0E0B0",
": c #F8F8E0",
"> c #E0E070",
", c #F8E0B0",
"< c #B0B070",
"1 c #F8F8B0",
"2 c #F8E070",
"3 c #E0B0B0",
"4 c #F8B070",
"5 c gray88",
"6 c gray69",
"7 c #989898",
"8 c #C8C8C8",
"9 c #000070",
"0 c #000038",
"q c #505050",
"w c #B07070",
"e c gray44",
"r c #387070",
"t c #3870B0",
"y c #F8B0B0",
"u c #7070B0",
"i c #70B0F8",
"p c #B0B0E0",
"a c #808080",
"s c #70B0E0",
"d c #B0B000",
"f c #003870",
"g c #383870",
"h c #B0B0F8",
"j c #F87038",
"k c #E070B0",
"l c #7070E0",
"z c #606060",
"x c #703800",
"c c #B03838",
"v c #003838",
"b c #282828",
/* pixels */
" .XX.X.. .XX.X....X.XX. ..X.XX. ",
" XXXX.X. XXXX.X..XoXXXX .X.XXXX ",
" XXX.X.. XXX.X...oX.XXX ..X.XXX ",
" .X.X... .X.O+@.#O.X.X. ...X.X. ",
" X.X...$ X.X%O##@...X.X $...X.X ",
"X.X....$X.X+#@##@@&@.X.X$....X.X",
" ....$$$ +**==@#@@###.. $$$.... ",
"- X X XX- O;:*>,*+>>*< -XX X X -",
".X.. .XX.O@*1o*2=o1**@X.XX. ..X.",
"X.X. XXXXO#==,*22*o>=#&XXXX .X.X",
".X.. XXX.X##*,:o>,34##X.XXX ..X.",
"X... .X<13@+,56:3*5*+@;X.X. ...X",
"...$ X.><7o+;89::05;O+;.X.X $...",
"...$ .X..q3<389::953w;8..X. $...",
".$$$ ....$%%*,;,,3,*e7$.... $$$.",
"X XX  X X rtw3,,,,ywur X X  XX X",
" .XX.X.. .eip&wwwe&pia. ..X.XX. ",
" XXXX.X. X#<a7isss7a8dX .X.XXXX ",
" XXX.X.. fgOqh3333h&Ogf ..X.XXX ",
" .X.X... gggqi3jjkiq%gg ...X.X. ",
" X.X...$ qq%%glwwlg&&zq $...X.X ",
"X.X....$X++Ot&&;;x&tc+OX$....X.X",
" ....$$$O**wtis66sitw**O$$$.... ",
"- X X XXq*wOgtlisltgOw*zXX X X -",
".X.. .XX.%qevggbbggvq&q.XX. ..X.",
"X.X. XXXX.X.vbgbggbg.X.XXXX .X.X",
".X.. XXX.X..qqq%qgqq..X.XXX ..X.",
"X... .X.X... &+q&+O ...X.X. ...X",
"...$ X.X...$qO+&q+&q$...X.X $...",
"...$ .X....$&++&&++O$....X. $...",
".$$$ ....$$$O*+.z+<+$$$.... $$$.",
"X XX  X X XX<*e  a*<XX X X  XX X"
};
