/* XPM */
static char *_07095f43c9e4f6b854b1594b60f4f2btAc0tnCwzVoWNajE[] = {
/* columns rows colors chars-per-pixel */
"32 32 15 1 ",
"  c #608860",
". c #889860",
"X c #A0A860",
"o c #C0C070",
"O c #3010A0",
"+ c #6020C0",
"@ c #A858B0",
"# c #C868A0",
"$ c #8048C0",
"% c #D88890",
"& c #D8A890",
"* c #D0D090",
"= c #E0E0A0",
"- c #E0E0C0",
"; c #E0E0F8",
/* pixels */
"o@#@##%##%...*oooo*...%##%##@#@o",
".@@#@#@@#..X.=****=.X..#@@#@#@@.",
"$$@$@$$$..XX.======.XX..$$$@$@$$",
"$#@#@#@@.XXoX*====*XoXX.@@#@#@#$",
"$##@#@@.XX*==o-;;-o==*XX.@@#@##$",
"$%####@..*---o*==*o---*..@####%$",
"#-&&&%#XXo;;-*o==o*-;;oXX#%&&&-#",
"@&&%%#X*=X*;-*X**X*-;*X=*X#%%&&@",
"@&&%#X*--=.*=o.oo.o=*.=--*X#%&&@",
"$-&%#.X;-=o.oX .. Xo.o=-;X.#%&-$",
"@%##Xo*X=*o. OOOOOO .o*=X*oX##%@",
"#-&%o=-*.o OOOOOOOOOO o.*-=o%&-#",
"@&%o*;=*. OOOOOOOOOOOO .*=;*o%&@",
"@&%o=-*X OOOOOOOOOOOOOO X*-=o%&@",
"$&%X==o.OOOOOOOOOOOOOOOO.o==X%&$",
"@#@.o*X OOOOOOOOOOOOOOOO X*o.@#@",
"#&%*oX.+OOOOOOOOOOOOOOOO+.Xo*%&#",
"@%#=-=XOOOOOOOOOOOOOOOOOOX=-=#%@",
"@%#*-*.OOOOOOOOOOOOOOOOOO.*-*#%@",
"$%#*=*.OOOOOOOOOOOOOOOOOO.*=*#%$",
"@@$X*o OOOOOOOOOOOOOOOOOO o*X$@@",
"@%#oX..OOOOOOOOOOOOOOOOOO..Xo#%@",
"@#@*-*XOOOOOOO+OO+OOOOOOOX*-*@#@",
"@#@o*o.OOOO+O+O++O+O+OOOO.o*o@#@",
"$@$o*o.OOO+O++++++++O+OOO.o*o$@$",
"$. XoX OO+++++$++$+++++OO XoX .$",
"$X..X..O+++$+$+$$+$+$+++O..X..X$",
"$oXXXXoO++$+$$$$$$$$+$++OoXXXXo$",
"@=====-++$$$$$@$$@$$$$$++-=====@",
"$*o*o**++$$@$@$@@$@$@$$++**o*o*$",
"$o*o*o*$$$@$@@@@@@@@$@$$$*o*o*o$",
"$oXoXoo$$@@@@@#@@#@@@@@$$ooXoXo$"
};
