/* XPM */
static char *_f194fb792c64cdcd37d3cc8df65d6a6x5k4HJjK33HXR3ey[] = {
/* columns rows colors chars-per-pixel */
"32 32 243 2 ",
"   c #37184E",
".  c #3F0776",
"X  c #4B285A",
"o  c #632D5F",
"O  c #4A097A",
"+  c #4A1271",
"@  c #42116C",
"#  c #492864",
"$  c #572E72",
"%  c #6A2774",
"&  c #78745C",
"*  c #6A4676",
"=  c #785675",
"-  c #76536B",
";  c #7A746A",
":  c #7B6E72",
">  c #94377E",
",  c #8A7557",
"<  c #8A5879",
"1  c #89526F",
"2  c #AB4C7B",
"3  c #9C6679",
"4  c #807C76",
"5  c #896E70",
"6  c #BD7B7C",
"7  c #8B9845",
"8  c #8A9659",
"9  c #949658",
"0  c #998E54",
"q  c #99A74C",
"w  c #9CB14E",
"e  c #9AA559",
"r  c #9BB15C",
"t  c #A5B157",
"y  c #A8AC4A",
"u  c #8D8E68",
"i  c #899468",
"p  c #989866",
"a  c #988878",
"s  c #959072",
"d  c #A38669",
"f  c #B3956A",
"g  c #A48878",
"h  c #A89A78",
"j  c #B79875",
"k  c #B58577",
"l  c #9AA766",
"z  c #9FAD6E",
"x  c #A4A468",
"c  c #BDBB6E",
"v  c #A4A377",
"b  c #B7B874",
"n  c #A9B167",
"m  c #A99D55",
"M  c #C28D7E",
"N  c #CD9278",
"B  c #C9B478",
"V  c #BDC65B",
"C  c #B9C56A",
"Z  c #AFD077",
"A  c #C4C377",
"S  c #CAD47E",
"D  c #CECE6C",
"F  c #E1DB63",
"G  c #350C99",
"H  c #3D0AA3",
"J  c #470889",
"K  c #510985",
"L  c #561891",
"P  c #681D8A",
"I  c #651C97",
"U  c #5D2691",
"Y  c #6A248A",
"T  c #6B2493",
"R  c #6B239C",
"E  c #662697",
"W  c #702C93",
"Q  c #5D1DB1",
"!  c #661EA3",
"~  c #5925B2",
"^  c #6726A6",
"/  c #7224A3",
"(  c #7938A7",
")  c #6427B9",
"_  c #6A36B6",
"`  c #703BB1",
"'  c #795789",
"]  c #7A5496",
"[  c #6E4F93",
"{  c #7D46A4",
"}  c #7A45B9",
"|  c #5F26C1",
" . c #7938CA",
".. c #7843C6",
"X. c #863BB5",
"o. c #943FB8",
"O. c #854B8A",
"+. c #92458B",
"@. c #944697",
"#. c #915F97",
"$. c #8C5490",
"%. c #A8579A",
"&. c #B3559D",
"*. c #AD5288",
"=. c #986889",
"-. c #8C6B97",
";. c #986497",
":. c #8E6E8B",
">. c #BB6A8C",
",. c #AB7688",
"<. c #B57888",
"1. c #A9669C",
"2. c #A87996",
"3. c #B7729B",
"4. c #A06D8C",
"5. c #8947AA",
"6. c #9748A7",
"7. c #9758AB",
"8. c #8245B4",
"9. c #8445BB",
"0. c #8A44BA",
"q. c #8949B9",
"w. c #9245B9",
"e. c #9A59B9",
"r. c #8755A9",
"t. c #A857A7",
"y. c #B357A5",
"u. c #A65AB6",
"i. c #B35EBB",
"p. c #AA4FA7",
"a. c #9467A7",
"s. c #8F67B3",
"d. c #B763AC",
"f. c #A364B7",
"g. c #BC69B4",
"h. c #B673B7",
"j. c #AF72A9",
"k. c #C56B98",
"l. c #C5748B",
"z. c #CA66A8",
"x. c #C268B5",
"c. c #CF75B0",
"v. c #873DC7",
"b. c #8745C6",
"n. c #9C5BC5",
"m. c #9857C9",
"M. c #9957D5",
"N. c #8F4CD1",
"B. c #A455CC",
"V. c #A559C5",
"C. c #A458D4",
"Z. c #AB55D6",
"A. c #9B65CD",
"S. c #AC69C7",
"D. c #B86BC8",
"F. c #A866D2",
"G. c #B36AD8",
"H. c #AE72CD",
"J. c #9857E5",
"K. c #9C46EF",
"L. c #A352E5",
"P. c #9F63F6",
"I. c #AD66E8",
"U. c #B36AE5",
"Y. c #B665FA",
"T. c #AE68EF",
"R. c #CA7EC6",
"E. c #8D878A",
"W. c #978886",
"Q. c #9D8094",
"!. c #B6868A",
"~. c #B89B98",
"^. c #AB918D",
"/. c #A8A186",
"(. c #B9BB8A",
"). c #B9BC93",
"_. c #AFA599",
"`. c #AE92A8",
"'. c #BBA9B1",
"]. c #9382A4",
"[. c #D09284",
"{. c #D28997",
"}. c #CA938B",
"|. c #C6BB85",
" X c #C7B896",
".X c #D6AF8F",
"XX c #E4A69E",
"oX c #D68BAA",
"OX c #CD85BA",
"+X c #D38FAC",
"@X c #E995B1",
"#X c #CDA6A8",
"$X c #D5ACAF",
"%X c #D9A3B6",
"&X c #CDB4AF",
"*X c #E6A1A2",
"=X c #BDC385",
"-X c #B9D894",
";X c #C8C888",
":X c #D2C989",
">X c #CBDA8A",
",X c #D6D789",
"<X c #C9CB97",
"1X c #D6CD98",
"2X c #CCD497",
"3X c #D6D696",
"4X c #E1DE96",
"5X c #DAE487",
"6X c #DDE497",
"7X c #E2E49B",
"8X c #CDCBA2",
"9X c #D7C9A5",
"0X c #CFD4A9",
"qX c #DAD9A8",
"wX c #CBCAB4",
"eX c #D9C7B6",
"rX c #DCDBB7",
"tX c #CED6B1",
"yX c #E2DBA9",
"uX c #EADCB9",
"iX c #E5CCB3",
"pX c #DBE2A8",
"aX c #DCE4B4",
"sX c #E6E4A8",
"dX c #E8E6B8",
"fX c #F2E1B7",
"gX c #F2E1AB",
"hX c #BE8EDA",
"jX c #C685D9",
"kX c #CE83C6",
"lX c #C3B5C0",
"zX c #D2A5C4",
"xX c #FFBFDC",
"cX c #C78AF1",
"vX c #DCDCC7",
"bX c #D8CCCE",
"nX c #EAD9CC",
"mX c #E7D8DB",
"MX c #F6D2CE",
"NX c #DEE8C3",
"BX c #E6E5C8",
"VX c #E8E0D5",
"CX c #F8CFE6",
/* pixels */
"Q.=.h.&.z.z.c.k.<.}.s i s 3XB C Z b 1Xp i W.#X>.k.c.z.z.&.j.3 #X",
"j.;.1.g.&.x.y.&.<.0 8 l 8 aX3XS :XyXyX9 l 9 d ,.1.&.d.&.x.t.;.Q.",
"] r.7.+.t.6.o.@.a 7 w z 8 pX6X3X3X6XpX8 l t 7 g O.w.6.p.+.u.6.r.",
"} G.i.g.i.Z.C.a.i q q |.l >X>XgXfX6XS x A q w u ;.C.G.y.y.i.G.{ ",
"5.D.i.*.x.i.6.^.z n <XqXpXC sXnXnX7XZ 7X9X3Xr l 2.u.B.g.y.g.D.6.",
"+.OX3.l.k.k.3 d 8 -XnXmXaX(.1XnXnX1Xb aXnX9X;X7 a 4.x.z.>.>.OX$.",
"$.MXXX*X*X{.d e e =XVXVXBX8X).vXaX=X0XBXnXVX;Xl p g oX@X*XXXMX3.",
"#.$X.X[.{.<.h >X6Xv tXBXqX2Xz -XZ r ;XaXBXtXv pX2X/.3.{.N B $X#.",
"#.$X.X[.>.#XwXpXpXtXp 2X5XD 7 Z Z 7 A 7X8Xu rXaXaXwX~.<.N .X+Xa.",
"O.CXoX{.!.a h dXpXsXb 9 B x , s i & f .X0 =XpXaXdXh a k [.*XCXO.",
"3 oXl.6 f B 3Xx qX2XA d 3 o o X   $ $ =.d ;X>X2Xe ,XA f 6 l.oX*.",
"<.xX@XM B 7X7X3X8 ).4 =.S.m.U.cX| P.J.e.2., Z q ,X6X5X|.M @XCX<.",
"%.+XN .X2XaXqX<Xi : ] } b.n.5.e.~ N.} b.r.-.& 8 =XrXNX0X.XN @X=.",
"u.%XN |.rXBX0Xv 4 s.....m.5.7.f.. A.{ } M.} s.; z tXvXvX|.k %X%.",
"@.zX~.h BXyXb u   U ^ R K R T P + U E U J ) ^ # s b 3XfXh ~.zX+.",
"y.1.:.g B F y d h.I.V.G.^ Y.L.B.u.I.L.T.R Y.K.A.; y F B g :.3.&.",
"3.%X!.9X;Xx d ,.j.%.+.i.Y V.m.5.} q.5.V.R B.B.X.* s x B 9X~.%Xl.",
"*.oX!.MXyXyX_.O.f.5.V.B.P Z.V.i.m.q.e.e.T B.u.u.* _.4XsXuX,.oX2 ",
"2 c.<.9XgX9XW.X + R I / K P P % J E T W O W Y % X a 1XuXeX2.oX*.",
"> OX<.9XqX1Xa -.f.G.B.B.U.B.H.jX~ I.C.m.G.n.D.jX-.W.qXqXeX2.c.2 ",
"@.%.1 j 1XB , =.f.q.5.w.b.C.5.e.| ..X.q.8.C.6.e.* 5 |.9X^.< %.&.",
"p.kX2. Xf p a -.7.n.0.9.m.0.n.n.J M.0.0.M.X.M.n.[ E.s x &X2.R.y.",
"p.x.=.eXfX8X_.  @ U R E K / I / . E T U J ^ ! R # `.<XsX9X;.g.p.",
"f.j.=. X1X X4 * S.H.n.G.I T.M.C.A.H.n.U.^ T.L.m.[ E.(.,X X5 h.u.",
"] -.; (.:XB g ,.h.g.5.e.P b.b...r.5.5.m.! b.b.q.$ E.=XS (.: #.@.",
"[ 2.; v A m , ,.d.i.u.u.E m.} 8.n.w.V.m./ M.X.8.[ 4 l C l 5 j.O.",
"' `.E.8 q 0 !.o T / I T O E Y Y J R E R O T Y Y # E.8 w 8 a `.' ",
"= lXv e t l #XhX! Y.J.L.U.n.S.jX) T.M.m.G.e.S.jXs.'.l w l /.lX' ",
":.mXpX7X5X4XMXa.I N. .b.8.V.5.e.|  .b.} { f.6.7.] mXpX5X6XrXmX-.",
"= bX(.S V ,XeX;.W m.N.q.m.8.M.e.H J.N.b.m.( V.S.r.&X<XD S (.bX= ",
"= &X9Xc >Xb eXO...~ U E O ^ I R G ~ ) _ ` 8.w.0.W bXb D C 0X&X- ",
"1 $Xj n e =XlX[ _ ......M.b.C.X.G ~ _ .._ ( w.` L lX|.y V x '.= "
};
