/* XPM */
static char *result[] = {
/* columns rows colors chars-per-pixel */
"32 32 5 1 ",
"  c #3090A0",
". c #40A0B0",
"X c #50B0C0",
"o c #68C0C0",
"O c #90D8C0",
/* pixels */
".oXXoXoo.oXXoXooooXoXXo.ooXoXXo.",
".XXXXoXo.XXXXoXooXoXXXX.oXoXXXX.",
".XXXoXoo.XXXoXooooXoXXX.ooXoXXX.",
".oXoXooo.oXoXooooooXoXo.oooXoXo.",
".XoXoooO.XoXoooOOoooXoX.OoooXoX.",
"XoXooooOXoXooooOOooooXoXOooooXoX",
".ooooOOO.ooooOOOOOOoooo.OOOoooo.",
" .X.X.XX .X.X.XXXX.X.X. XX.X.X. ",
"oXoo.oXXoXoo.oXXXXo.ooXoXXo.ooXo",
"XoXo.XXXXoXo.XXXXXX.oXoXXXX.oXoX",
"oXoo.XXXoXoo.XXXXXX.ooXoXXX.ooXo",
"Xooo.oXoXooo.oXooXo.oooXoXo.oooX",
"oooO.XoXoooO.XoXXoX.OoooXoX.Oooo",
"oooO.oXooooO.oXooXo.OooooXo.Oooo",
"oOOO.ooooOOO.oooooo.OOOoooo.OOOo",
"X.XX..X.X.XX..X..X..XX.X.X..XX.X",
".oXXoXoo.oXXoXooooXoXXo.ooXoXXo.",
".XXXXoXo.XXXXoXooXoXXXX.oXoXXXX.",
".XXXoXoo.XXXoXooooXoXXX.ooXoXXX.",
".oXoXooo.oXoXooooooXoXo.oooXoXo.",
".XoXoooO.XoXoooOOoooXoX.OoooXoX.",
"XoXooooOXoXooooOOooooXoXOooooXoX",
".ooooOOO.ooooOOOOOOoooo.OOOoooo.",
" .X.X.XX .X.X.XXXX.X.X. XX.X.X. ",
"oXoo.oXXoXoo.oXXXXo.ooXoXXo.ooXo",
"XoXo.XXXXoXo.XXXXXX.oXoXXXX.oXoX",
"oXoo.XXXoXoo.XXXXXX.ooXoXXX.ooXo",
"Xooo.oXoXooo.oXooXo.oooXoXo.oooX",
"oooO.XoXoooO.XoXXoX.OoooXoX.Oooo",
"oooO.oXooooO.oXooXo.OooooXo.Oooo",
"oOOO.ooooOOO.oooooo.OOOoooo.OOOo",
"X.XX..X.X.XX..X..X..XX.X.X..XX.X"
};
