/* XPM */
static char *result[] = {
/* columns rows colors chars-per-pixel */
"32 32 48 1 ",
"  c #000038",
". c #003838",
"X c #282828",
"o c gray22",
"O c #703800",
"+ c #703838",
"@ c #707000",
"# c #707038",
"$ c #000070",
"% c #003870",
"& c #383870",
"* c #387070",
"= c #505050",
"- c #606060",
"; c gray44",
": c #B03838",
"> c #B07000",
", c #B07038",
"< c #F87038",
"1 c #B07070",
"2 c #B0B000",
"3 c #B0B038",
"4 c #E0B038",
"5 c #B0B070",
"6 c #E0B070",
"7 c #F8B070",
"8 c #E0E070",
"9 c #F8E070",
"0 c #3870B0",
"q c #7070B0",
"w c #7070E0",
"e c #E070B0",
"r c #70B0E0",
"t c #70B0F8",
"y c #808080",
"u c #989898",
"i c gray69",
"p c #E0B0B0",
"a c #F8B0B0",
"s c #E0E0B0",
"d c #F8E0B0",
"f c #F8F8B0",
"g c #B0B0E0",
"h c #B0B0F8",
"j c #C8C8C8",
"k c gray88",
"l c #F8F8E0",
"z c None",
/* pixels */
"zzzzzzzzzzzzzzzzzzzzzzzzzzzzzzzz",
"zzzzzzzzzzzzzzzzzz3zzzzzzzzzzzzz",
"zzzzzzzzzzzzzzzzz3zzzzzzzzzzzzzz",
"zzzzzzzzzzzz#,@z>#zzzzzzzzzzzzzz",
"zzzzzzzzzzzzo#>>@zzzzzzzzzzzzzzz",
"zzzzzzzzzzz,>@>>@@+@zzzzzzzzzzzz",
"zzzzzzzzz,6644@>@@>>>zzzzzzzzzzz",
"zzzzzzzzzz#sl68d6,8865zzzzzzzzzz",
"zzzzzzzzz#@6f36943f66@zzzzzzzzzz",
"zzzzzzzzz#>44d6996384>+zzzzzzzzz",
"zzzzzzzzzz>>6dl38dp7>>zzzzzzzzzz",
"zzzzzzz5fp@,dkilp6k6,@szzzzzzzzz",
"zzzzzzz85u3,sj$ll ks#,szzzzzzzzz",
"zzzzzzzzz=p5pj$ll$kp1sjzzzzzzzzz",
"zzzzzzzzzzoo6dsddpd6;uzzzzzzzzzz",
"zzzzzzzzzz*01pdddda1q*zzzzzzzzzz",
"zzzzzzzzzz;tg+111;+gtyzzzzzzzzzz",
"zzzzzzzzzz>5yutrrruyj2zzzzzzzzzz",
"zzzzzzzzz%&#=hpppph+#&%zzzzzzzzz",
"zzzzzzzzz&&&=tp<<et=o&&zzzzzzzzz",
"zzzzzzzzz==oo&w11w&++-=zzzzzzzzz",
"zzzzzzzzz,,#0++ssO+0:,#zzzzzzzzz",
"zzzzzzzz#6610triirt0166#zzzzzzzz",
"zzzzzzzz=61#&0wtrw0&#16-zzzzzzzz",
"zzzzzzzzzo=;.&&XX&&.=+=zzzzzzzzz",
"zzzzzzzzzzzz.X&X&&X&zzzzzzzzzzzz",
"zzzzzzzzzzzz===o=&==zzzzzzzzzzzz",
"zzzzzzzzzzzzz+,=+,#zzzzzzzzzzzzz",
"zzzzzzzzzzzz=#,+=,+=zzzzzzzzzzzz",
"zzzzzzzzzzzz+,,++,,#zzzzzzzzzzzz",
"zzzzzzzzzzzz#6,z-,5,zzzzzzzzzzzz",
"zzzzzzzzzzzz56;zzy65zzzzzzzzzzzz"
};
