/* XPM */
static char *_f66821509c44679f5a9f0cfb7721bc4Up3eqZI3ES9ixDtP[] = {
/* columns rows colors chars-per-pixel */
"32 32 43 1 ",
"  c None",
". c #181818",
"X c #380000",
"o c #383800",
"O c #003838",
"+ c #282828",
"@ c gray22",
"# c #703800",
"$ c #703838",
"% c #707000",
"& c #707038",
"* c #383870",
"= c #505050",
"- c #606060",
"; c gray44",
": c #B07000",
"> c #B07038",
", c #B07070",
"< c #B0B038",
"1 c #E0B000",
"2 c #E0B038",
"3 c #E0E000",
"4 c #B0B070",
"5 c #E0B070",
"6 c #F8B070",
"7 c #E0E070",
"8 c #F8E070",
"9 c #3838B0",
"0 c #3870B0",
"q c #7070B0",
"w c #7070E0",
"e c #70B0E0",
"r c #808080",
"t c #989898",
"y c #E0B0B0",
"u c #F8B0B0",
"i c #E0E0B0",
"p c #F8E0B0",
"a c #B0B0E0",
"s c #B0B0F8",
"d c #B0E0E0",
"f c #B0E0F8",
"g c #F8F8E0",
/* pixels */
"                                ",
"              :                 ",
"              5                 ",
"              44                ",
"         &4>>@45                ",
"        22i885:<%&              ",
"         r$%::<%::5>>           ",
"         &><:::%%##:4&          ",
"        @>7><:1<5>>&+           ",
"        o%>54pp581:%%           ",
"         -,:ppg58822%           ",
"         =,:628228:5>           ",
"         =y:2:1::1#:>           ",
"         =y>:>::%:o%%           ",
"         -yu%y54#:o#            ",
"         =4uupp5#o+             ",
"          $,555,.r              ",
"          >9@qaq;t4             ",
"          -q-sfd>.-             ",
"          -w-333&r=             ",
"          &*@@**@X+             ",
"          *$$$*9*.              ",
"          0edr99*0              ",
"           0eq-;=               ",
"           O*&>>=               ",
"            *>p5&               ",
"            +>4>=               ",
"          >>$@$@@               ",
"          ,54$$@$               ",
"          -&>>>>-               ",
"         r57p885>               ",
"         t55444                 "
};
