/* XPM */
static char *_f293831a560457ef510587022425147TtyE3bkIzjWkNYsw[] = {
/* columns rows colors chars-per-pixel */
"32 32 53 1 ",
"  c None",
". c #181818",
"X c #383800",
"o c #000038",
"O c #003838",
"+ c #282828",
"@ c gray22",
"# c #703800",
"$ c #703838",
"% c #707000",
"& c #707038",
"* c #003870",
"= c #383870",
"- c #505050",
"; c #606060",
": c gray44",
"> c #B03838",
", c #E03838",
"< c #F83838",
"1 c #B07000",
"2 c #B07038",
"3 c #E07000",
"4 c #E07038",
"5 c #F87038",
"6 c #B07070",
"7 c #E07070",
"8 c #B0B038",
"9 c #E0B000",
"0 c #E0B038",
"q c #F8B038",
"w c #B0B070",
"e c #E0B070",
"r c #F8B070",
"t c #E0E070",
"y c #F8E070",
"u c #F8F870",
"i c #3838B0",
"p c #3870B0",
"a c #7070B0",
"s c #70B0E0",
"d c #808080",
"f c #989898",
"g c #E0B0B0",
"h c #E0E0B0",
"j c #F8E0B0",
"k c #F8F8B0",
"l c #B0B0E0",
"z c #B0B0F8",
"x c #B0E0E0",
"c c #B0E0F8",
"v c #C8C8C8",
"b c #E0E0F8",
"n c white",
/* pixels */
"                                ",
"                                ",
"                                ",
"             he                 ",
"              g&                ",
"              e1                ",
"            $%%2%%1128&         ",
"           %191%11131$          ",
"          68011%122802          ",
"          e1je10022228          ",
"         &1yt8eyyky101&         ",
"         &1920kkukyy01&         ",
"         -110y0kkqy0t1@         ",
"         h%8201yy100w2j         ",
"         g2111000011%2g         ",
"         v:X#%1111%%X;fkh       ",
"           =+X####X@p =;t       ",
"          8zl@...@@ls=+         ",
"          8tdlcbcxv:=o          ",
"          =;&ere4r58@=          ",
"         =i=@f74,<,#=i=         ",
"         ===@@;4,>#+=i=         ",
"         $;@p6,,>-ap@;$         ",
"        ;we&4,,fzzsp;ww;        ",
"        ;6e,,>===i+Oww6-        ",
"         &2,>@=====*n&&         ",
"            *=i==i=*            ",
"            @;:;;:-@            ",
"            $&6&$6$$            ",
"            $26;;6&$            ",
"            -2h;6y6-            ",
"             dwddwdn            "
};
