/* XPM */
static char *_34cd053ecd648e59e1740fa971d0ddaiwtDXzxnPzPzbnNB[] = {
/* columns rows colors chars-per-pixel */
"32 32 52 1 ",
"  c None",
". c black",
"X c #181818",
"o c #380000",
"O c #003838",
"+ c #282828",
"@ c gray22",
"# c gray23",
"$ c #703800",
"% c #703838",
"& c #707000",
"* c #707038",
"= c #383870",
"- c #505050",
"; c #606060",
": c gray44",
"> c #B03838",
", c #B07000",
"< c #B07038",
"1 c #E07000",
"2 c #E07038",
"3 c #B07070",
"4 c #F87070",
"5 c #B0B038",
"6 c #E0B038",
"7 c #F8B038",
"8 c #E0E038",
"9 c #B0B070",
"0 c #E0B070",
"q c #B0E070",
"w c #E0E070",
"e c #F8E070",
"r c #3838B0",
"t c #3870B0",
"y c #7070B0",
"u c #B070B0",
"i c #70B0E0",
"p c #70B0F8",
"a c #808080",
"s c #989898",
"d c gray69",
"f c #E0B0B0",
"g c #F8B0B0",
"h c #E0E0B0",
"j c #F8E0B0",
"k c #F8F8B0",
"l c #B0B0E0",
"z c #B0B0F8",
"x c #B0E0F8",
"c c #C8C8C8",
"v c #F8E0E0",
"b c #F8F8E0",
/* pixels */
"                                ",
"                                ",
"                                ",
"                                ",
"                                ",
"                    &           ",
"                  **<9*         ",
"                <&,,169*9&9     ",
"               *,6,776<0<0,<$   ",
"             h696e6w0jj66&      ",
"             <@jb00jjdjg0<9     ",
"               jj0jjf==j096-    ",
"            wq**fgjbbjsj0<6$    ",
"            @=<*0jbbbbjg;96%    ",
"            +<wld0jvbbjg-9$X    ",
"       --a;=r:8t;30jjjj0<6.O    ",
"      *<<0f==+ypl2>3fjj0<X.     ",
"     -<00<%XX+izf4lu-d3%..      ",
"      <<9*.  @$9wfxz:ca.O       ",
"       @XX  tpzck0lz;55X        ",
"           ==yixzl%;+==.        ",
"          ==r=++yiyoX==.        ",
"          =rr=+=rrrX+a:.        ",
"         @===+X=r=+X-09X        ",
"        -90=+. =r=+%<<<X        ",
"     3*-<00-.  =r=><9j0X        ",
"     @*<30*+O -9h;>%<0<.        ",
"      X+%%..  -<0*.  %%X        ",
"       +++.    *9+.             ",
"        @+O   @%%XX             ",
"              XXXXO             ",
"               +++              "
};
