/* XPM */
static char *_6401f2b4fa7423dfbe288836c7158e0A5Ng1KqSX36OHYAH[] = {
/* columns rows colors chars-per-pixel */
"32 32 49 1 ",
"  c None",
". c #003838",
"X c gray22",
"o c #703800",
"O c #703838",
"+ c #387038",
"@ c #707000",
"# c #707038",
"$ c #000070",
"% c #003870",
"& c #383870",
"* c #505050",
"= c #606060",
"- c gray44",
"; c #E03838",
": c #B07000",
"> c #B07038",
", c #E07000",
"< c #F87038",
"1 c #B07070",
"2 c #E07070",
"3 c #F87070",
"4 c #B0B038",
"5 c #E0B000",
"6 c #E0B038",
"7 c #F8B038",
"8 c #E0E038",
"9 c #F8E038",
"0 c #B0B070",
"q c #E0B070",
"w c #E0E070",
"e c #F8E070",
"r c #3870B0",
"t c #7070B0",
"y c #7070E0",
"u c #70B0E0",
"i c #70B0F8",
"p c #808080",
"a c gray69",
"s c #E0B0B0",
"d c #F8B0B0",
"f c #E0E0B0",
"g c #F8E0B0",
"h c #F8F8B0",
"j c #B0B0E0",
"k c #B0B0F8",
"l c #C8C8C8",
"z c gray88",
"x c #F8F8E0",
/* pixels */
"                  6             ",
"                 6:             ",
"                40              ",
"             ## :               ",
"            @@@@O@              ",
"         46q:,::oo:@@           ",
"         ##wxqqwq6q4q-          ",
"          @6xq696>eq6@          ",
"    #1 p0O:76g08hq>w6: 0  1=    ",
"    1##>0O:5dgxs6gg66: 0>#>1    ",
"    q1>0>s:>gz&xz*zs4: >0#>0    ",
"     >>>Of>>gz$xx$zg>4fO>0>-    ",
"     *O>>-s1sl&xx$zf1sp0#O*     ",
"       >1&X>sgxxxxgs1&&1>       ",
"       %&&&40gggggg04&&&&       ",
"         &>at#1001>tq>%         ",
"         +4ytOttttOty>#         ",
"            *jlssjjO            ",
"            *ks<32kO            ",
"            &yk22ky&            ",
"            X=y11u&o            ",
"            rOOfgOOt<2          ",
"            riuaauit;1          ",
"            &ryiuyr&            ",
"            %&&XX&&.            ",
"            %&&%&&&&            ",
"            *****&**            ",
"             O>*O>#             ",
"            *#>O*>O*            ",
"            O>>OO>>#            ",
"            #q> =>0>            ",
"            0q-  pq0            "
};
