/* XPM */
static char *_1f4f69ef7084686870b0eabe1131d37X4uPC9rSSdTBJYZI[] = {
/* columns rows colors chars-per-pixel */
"32 32 47 1 ",
"  c #40A0B0",
". c #68C0C0",
"X c #50B0C0",
"o c #B07000",
"O c #E0B070",
"+ c #B0B070",
"@ c #90D8C0",
"# c #707038",
"$ c #B07038",
"% c gray22",
"& c #E0B038",
"* c #E0E0B0",
"= c #F8E070",
"- c #B0B038",
"; c #707000",
": c #808080",
"> c #703838",
", c #3090A0",
"< c #703800",
"1 c #E0E070",
"2 c #E0B000",
"3 c #282828",
"4 c #383800",
"5 c #F8E0B0",
"6 c #606060",
"7 c #B07070",
"8 c #F8F8E0",
"9 c #505050",
"0 c #F8B070",
"q c #E0B0B0",
"w c #F8B0B0",
"e c #181818",
"r c #3838B0",
"t c #7070B0",
"y c #B0B0E0",
"u c gray44",
"i c #989898",
"p c #B0B0F8",
"a c #B0E0F8",
"s c #B0E0E0",
"d c #7070E0",
"f c #E0E000",
"g c #383870",
"h c #380000",
"j c #3870B0",
"k c #70B0E0",
"l c #003838",
/* pixels */
" .XX.X.. .XX.X....X.XX. ..X.XX. ",
" XXXX.X. XXXX.o..X.XXXX .X.XXXX ",
" XXX.X.. XXX.XO...X.XXX ..X.XXX ",
" .X.X... .X.X.++...X.X. ...X.X. ",
" X.X...@ #+$$%+O@...X.X @...X.X ",
"X.X....@&&*==Oo-;#...X.X@....X.X",
" ....@@@ :>;oo-;ooO$$.. @@@.... ",
", X X XX,#$-ooo;;<<o+# ,XX X X ,",
".X.. .XX%$1$-o2-O$$#3.X.XX. ..X.",
"X.X. XXX4;$O+55O=2o;;X.XXXX .X.X",
".X.. XXX.67o558O==&&;.X.XXX ..X.",
"X... .X.X97o0&=&&=oO$..X.X. ...X",
"...@ X.X.9qo&o2oo2<o$...X.X @...",
"...@ .X..9q$o$oo;o4;;....X. @...",
".@@@ ....6qw;qO+<o4<@@@.... @@@.",
"X XX  X X9+ww55O<43 XX X X  XX X",
" .XX.X.. .>7OOO7e:X.XX. ..X.XX. ",
" XXXX.X. X$r%tytui+XXXX .X.XXXX ",
" XXX.X.. X6t6pas$e6.XXX ..X.XXX ",
" .X.X... .6d6fff#:9X.X. ...X.X. ",
" X.X...@ X#g%%gg%h3.X.X @...X.X ",
"X.X....@X.g>>>grge...X.X@....X.X",
" ....@@@ .jks:rrgj@.... @@@.... ",
", X X XX, Xjkt6u9X X X ,XX X X ,",
".X.. .XX.X.lg#$$9X. ..X.XX. ..X.",
"X.X. XXXX.X.g$5O#XX .X.XXXX .X.X",
".X.. XXX.X..3$+$9XX ..X.XXX ..X.",
"X... .X.X.$$>%>%%X. ...X.X. ...X",
"...@ X.X..7O+>>%>.X @...X.X @...",
"...@ .X...6#$$$$6X. @....X. @...",
".@@@ ....:O15==O$.. @@@.... @@@.",
"X XX  X XiOO+++  X  XX X X  XX X"
};
