/* XPM */
static char *fb99f1f8b7df4deea9cafe8cb1166257cZmlki9ctdYk0eSH[] = {
/* columns rows colors chars-per-pixel */
"32 32 63 1 ",
"  c None",
". c #282828",
"X c gray22",
"o c #700000",
"O c #700038",
"+ c #703838",
"@ c #707000",
"# c #707038",
"$ c #606060",
"% c gray44",
"& c #B00000",
"* c #B00038",
"= c #B03838",
"- c #E00000",
"; c #F80000",
": c #E00038",
"> c #F80038",
", c #E03838",
"< c #B07000",
"1 c #B07038",
"2 c #E07038",
"3 c #B00070",
"4 c #B03870",
"5 c #E00070",
"6 c #E03870",
"7 c #B07070",
"8 c #E07070",
"9 c #70B070",
"0 c #B0B000",
"q c #B0B038",
"w c #E0B000",
"e c #E0E000",
"r c #B0B070",
"t c #E0B070",
"y c #E0E070",
"u c #F800B0",
"i c #E038B0",
"p c #F838B0",
"a c #B070B0",
"s c #E070B0",
"d c #F870B0",
"f c #F870E0",
"g c #70B0B0",
"h c #808080",
"j c #989898",
"k c gray69",
"l c #E0B0B0",
"z c #B0E0B0",
"x c #E0E0B0",
"c c #F8E0B0",
"v c #E0F8B0",
"b c #F8F8B0",
"n c #E0B0E0",
"m c #F8B0E0",
"M c #B0E0E0",
"N c #C8C8C8",
"B c gray88",
"V c #F8E0E0",
"C c #E0F8E0",
"Z c #F8F8E0",
"A c #E0E0F8",
"S c #F8E0F8",
"D c #F8F8F8",
/* pixels */
"                                ",
"                                ",
"                                ",
"                                ",
"                                ",
"              r$$#              ",
"            $rtryyr%            ",
"           #rryyxxxrh           ",
"          9rrxcZryxxxj6         ",
"          #rxZV$ooo.hr:         ",
"         :=kZko&&&oo+k7>:       ",
"         4,xx6**==854r2-%       ",
"       :-:rc8uufDDVi3xt z       ",
"        :;1b7pm3nD=74bxxZ       ",
"      r   hb8pDolD474bxv        ",
"      Mzrrrxl5V4VSajhZrh        ",
"       xxxrrxanAABN%xZ%r        ",
"     g   hh+Z77jjh+71xrx        ",
"     x9hrx%4xxl&88&l7xh         ",
"     CxyxkhakxB,bc=NrB          ",
"       h rNBk$xr8=@jxk          ",
"        % O*Nky0wee1kN          ",
"          NlNo<qe0<+1,&         ",
"          &87&-o&&&o,,&         ",
"         o,d,&&&&&&o&,=         ",
"         X*,=2228tlk+&+         ",
"          o*7xZZZxlN            ",
"             %7jNkj             ",
"             4l7==O             ",
"             o*&*:*             ",
"             O:p*ps+            ",
"              4m4is             "
};
