/* XPM */
static char * Menardi_xpm[] = {
"32 32 67 1",
" 	c #40A0B0",
".	c #68C0C0",
"+	c #50B0C0",
"@	c #90D8C0",
"#	c #B0B070",
"$	c #606060",
"%	c #707038",
"&	c #E0B070",
"*	c #E0E070",
"=	c #707070",
"-	c #3090A0",
";	c #E0E0B0",
">	c #808080",
",	c #70B070",
"'	c #F8E0B0",
")	c #F8F8E0",
"!	c #989898",
"~	c #E03870",
"{	c #F8E0E0",
"]	c #700000",
"^	c #282828",
"/	c #E00038",
"(	c #B03838",
"_	c #B0B0B0",
":	c #B00000",
"<	c #703838",
"[	c #B07070",
"}	c #F80038",
"|	c #B03870",
"1	c #E03838",
"2	c #B00038",
"3	c #E07070",
"4	c #E00070",
"5	c #E07038",
"6	c #E00000",
"7	c #F800B0",
"8	c #F870E0",
"9	c #F8F8F8",
"0	c #E038B0",
"a	c #B00070",
"b	c #B0E0B0",
"c	c #F80000",
"d	c #B07038",
"e	c #F8F8B0",
"f	c #F838B0",
"g	c #F8B0E0",
"h	c #E0B0E0",
"i	c #E0B0B0",
"j	c #E0F8B0",
"k	c #B0E0E0",
"l	c #F8E0F8",
"m	c #B070B0",
"n	c #E0E0F8",
"o	c #E0E0E0",
"p	c #C8C8C8",
"q	c #70B0B0",
"r	c #E0F8E0",
"s	c #707000",
"t	c #700038",
"u	c #B0B000",
"v	c #E0B000",
"w	c #E0E000",
"x	c #B07000",
"y	c #B0B038",
"z	c #F870B0",
"A	c #383838",
"B	c #E070B0",
" .++.+.. .++.+....+.++. ..+.++. ",
" ++++.+. ++++.+..+.++++ .+.++++ ",
" +++.+.. +++.+....+.+++ ..+.+++ ",
" .+.+... .+.+......+.+. ...+.+. ",
" +.+...@ +.+...@@...+.+ @...+.+ ",
"+.+....@+.+...#$$%...+.+@....+.+",
" ....@@@ ...$#&#**#=... @@@.... ",
"- + + ++- +%##**;;;#>+ -++ + + -",
".+.. .++.+,##;')#*;;;!~.++. ..+.",
"+.+. ++++.%#;){$]]]^>#/++++ .+.+",
".+.. +++./(_)_]:::]]<_[}/++ ..+.",
"+... .+.+|1;;~22((34|#56=+. ...+",
"...@ +./6/#'377899{0a;&.b.+ @...",
"...@ .+./cde[fgah9([|e;;)+. @...",
".@@@ .#..@>e3f9]i9|[|e;j... @@@.",
"+ ++  kb###;i4{|{lm!>)#> +  ++ +",
" .++.+.;;;##;mhnnop=;)=#..+.++. ",
" ++++q+. >><)[[!!><[d;#;.+.++++ ",
" +++.;,>#;=|;;i:33:i[;> ..+.+++ ",
" .+.+r;*;_>m_;o1e'(p#o. ...+.+. ",
" +.+...> #po_$;#3(s!;_+ @...+.+ ",
"+.+....@=.t2p_*uvwwd_p.+@....+.+",
" ....@@@ .pip]xywux<d1: @@@.... ",
"- + + ++- :3[:6]:::]11:-++ + + -",
".+.. .++.]1z1::::::]:1(.++. ..+.",
"+.+. ++++A21(5553&i_<:<++++ .+.+",
".+.. +++.+]2[;)));ip..+.+++ ..+.",
"+... .+.+... =[!p_! ...+.+. ...+",
"...@ +.+...@ |i[((t @...+.+ @...",
"...@ .+....@ ]2:2/2 @....+. @...",
".@@@ ....@@@ t/f2fB<@@@.... @@@.",
"+ ++  + + ++  |g|0B ++ + +  ++ +"};
