/* XPM */
static char *df3a04003af946f2a791d479ad98faf4[] = {
/* columns rows colors chars-per-pixel */
"32 32 47 1 ",
"  c #40A0B0",
". c #68C0C0",
"X c #50B0C0",
"o c #B07000",
"O c #E0B070",
"+ c #B0B070",
"@ c #90D8C0",
"# c gray22",
"$ c #B07038",
"% c #707038",
"& c #707000",
"* c #B0B038",
"= c #F8E070",
"- c #E0E0B0",
"; c #E0B038",
": c #703838",
"> c #808080",
", c #3090A0",
"< c #703800",
"1 c #282828",
"2 c #E0B000",
"3 c #E0E070",
"4 c #F8E0B0",
"5 c #383800",
"6 c #F8F8E0",
"7 c #B07070",
"8 c #606060",
"9 c #F8B070",
"0 c #505050",
"q c #E0B0B0",
"w c #F8B0B0",
"e c #181818",
"r c #989898",
"t c gray44",
"y c #7070B0",
"u c #B0B0E0",
"i c #3838B0",
"p c #B0E0E0",
"a c #B0E0F8",
"s c #B0B0F8",
"d c #E0E000",
"f c #7070E0",
"g c #380000",
"h c #383870",
"j c #3870B0",
"k c #70B0E0",
"l c #003838",
/* pixels */
" .XX.X.. .XX.X....X.XX. ..X.XX. ",
" XXXX.X. XXXX.Xo.X.XXXX .X.XXXX ",
" XXX.X.. XXX.X.O..X.XXX ..X.XXX ",
" .X.X... .X.X.++...X.X. ...X.X. ",
" X.X...@ X.X..O+#$$+%.X @...X.X ",
"X.X....@X.X.%&*oO==-;;.X@....X.X",
" ....@@@ $$Ooo&*oo&:>.. @@@.... ",
", X X XX%+o<<&&ooo*$%X ,XX X X ,",
".X.. .XX.1%$$O*2o*$3$#X.XX. ..X.",
"X.X. XXXX&&o2=O44+O$&5.XXXX .X.X",
".X.. XXX.&;;==O644o78.X.XXX ..X.",
"X... .X.X$Oo=;;=;9o70..X.X. ...X",
"...@ X.X.$o<2oo2o;oq0...X.X @...",
"...@ .X..&&5o&oo$o$q0....X. @...",
".@@@ ....@<5o<+Oq&wq8@@.... @@@.",
"X XX  X X X15<O44ww+0X X X  XX X",
" .XX.X.. .XX>e7OOO7:XX. ..X.XX. ",
" XXXX.X. XX+rtyuy#i$XXX .X.XXXX ",
" XXX.X.. XX8e$pas8y8XXX ..X.XXX ",
" .X.X... .X0>%ddd8f8.X. ...X.X. ",
" X.X...@ X.1g#hh##h%X.X @...X.X ",
"X.X....@X.X.ehih:::h.X.X@....X.X",
" ....@@@ ...jhii>pkj... @@@.... ",
", X X XX, X X0t8ykjX X ,XX X X ,",
".X.. .XX.X.. 0$$%hl ..X.XX. ..X.",
"X.X. XXXX.X. %O4$hX .X.XXXX .X.X",
".X.. XXX.X.. 0$+$1X ..X.XXX ..X.",
"X... .X.X... ##:#:$$...X.X. ...X",
"...@ X.X...@ :#::+O7@...X.X @...",
"...@ .X....@ 8$$$$%8@....X. @...",
".@@@ ....@@@ $O==43O>@@.... @@@.",
"X XX  X X XX  X+++OOrX X X  XX X"
};
