/* XPM */
static char * Success_xpm[] = {
"32 32 62 1",
" 	c #C0C070",
".	c #A858B0",
"+	c #C868A0",
"@	c #D88890",
"#	c #889860",
"$	c #D0D090",
"%	c #E0B038",
"&	c #A0A860",
"*	c #E0E0A0",
"=	c #B07000",
"-	c #8048C0",
";	c #B0B038",
">	c #B0B070",
",	c #707038",
"'	c #707000",
")	c #703838",
"!	c #E0B070",
"~	c #E07000",
"{	c #703800",
"]	c #E0E0C0",
"^	c #D8A890",
"/	c #E0E070",
"(	c #F8F8E0",
"_	c #707070",
":	c #F8E038",
"<	c #B07038",
"[	c #F8E070",
"}	c #B07070",
"|	c #808080",
"1	c #F8B038",
"2	c #F8E0B0",
"3	c #E0E038",
"4	c #F8F8B0",
"5	c #606060",
"6	c #E0B000",
"7	c #F8B0B0",
"8	c #E0B0B0",
"9	c #E0E0E0",
"0	c #383870",
"a	c #505050",
"b	c #E0E0B0",
"c	c #000070",
"d	c #C8C8C8",
"e	c #383838",
"f	c #003870",
"g	c #608860",
"h	c #3010A0",
"i	c #B0B0B0",
"j	c #7070B0",
"k	c #6020C0",
"l	c #387038",
"m	c #7070E0",
"n	c #B0B0E0",
"o	c #B0B0F8",
"p	c #F87038",
"q	c #F87070",
"r	c #E07070",
"s	c #70B0E0",
"t	c #3870B0",
"u	c #70B0F8",
"v	c #E03838",
"w	c #003838",
" .+.++@++@###$    %###@++@++.+. ",
"#..+.+..+##&#*$$$%=#&##+..+.+..#",
"--.-.---##&&#***;>*#&&##---.-.--",
"-+.+.+..#&& &,,*=*$& &&#..+.+.+-",
"-++.+..#&&$*'''')' **$&&#..+.++-",
"-@++++.##;%!=~=={{='']$##.++++@-",
"+]^^^@+&&,,/(!!/!%!;!_ &&+@^^^]+",
".^^@@+&$*&'%(!%:%<[!%'&*$&+@@^^.",
".^^@,}$|>)=1%2>34!</%=*>]$}5@^^.",
"-]^@},,<>)=672(8%22%%=*><,<}@^]-",
".@++!}<><8=<290(9a98;=$<>,<>++@.",
"+]^@ <<<)b<<29c((c92<;b)<><_@^]+",
".^@ $a)<<_8}8d0((c9b}8|>,)a$ @^.",
".^@ *]$<}0e<82((((28}00}<$]* @^.",
"-^@&** f000;>222222>;0000 **&@^-",
".+.# $&gh0<ij,}>>}<j!<fhg&$ #.+.",
"+^@$ &#khl;mj)jjjj)jm<,hk#& $@^+",
".@+*]*&hhhhhand88nn)hhhhh&*]*+@.",
".@+$]$#hhhhhao8pqro)hhhhh#$]$+@.",
"-@+$*$#hhhhh0morrom0hhhhh#$*$+@-",
"..-&$ ghhhhhe5m}}s0{hhhhhg $&-..",
".@+ &##hhhhht))b2))jprhhh##& +@.",
".+.$]$&hhhhhtusiisujv}hhh&$]$.+.",
".+. $ #hhhhk0tmusmt0khhhh# $ .+.",
"-.- $ #hhhkhf00ee00whkhhh# $ -.-",
"-#g& &ghhkkkf00f0000kkkhhg& &g#-",
"-&##&##hkkk-aaaaa0aa-kkkh##&##&-",
"- &&&& hkk-k-)<a)<,-k-kkh &&&& -",
".*****]kk---a,<)a<)a---kk]*****.",
"-$ $ $$kk--.)<<))<<,.--kk$$ $ $-",
"- $ $ $---.-,!<.5<><-.---$ $ $ -",
"- & &  --...>!_..|!>...--  & & -"};
