/* XPM */
static char *_9437119a46b4578b4f8be4938106cdf[] = {
/* columns rows colors chars-per-pixel */
"32 32 57 1 ",
"  c #40A0B0",
". c #68C0C0",
"X c #50B0C0",
"o c #E0E0B0",
"O c #E0B070",
"+ c #90D8C0",
"@ c #E0B0B0",
"# c #707038",
"$ c #B07000",
"% c #703838",
"& c #707000",
"* c #B07038",
"= c #B0B038",
"- c #3090A0",
"; c #E0B000",
": c #E07000",
"> c #B07070",
", c #E0B038",
"< c #F8E0B0",
"1 c #F8E070",
"2 c #E0E070",
"3 c #F8F8B0",
"4 c #F8F870",
"5 c #505050",
"6 c #F8B038",
"7 c gray22",
"8 c #B0B070",
"9 c #C8C8C8",
"0 c gray44",
"q c #383800",
"w c #703800",
"e c #606060",
"r c #989898",
"t c #383870",
"y c #282828",
"u c #3870B0",
"i c #B0B0F8",
"p c #B0B0E0",
"a c #181818",
"s c #70B0E0",
"d c #808080",
"f c #B0E0F8",
"g c #E0E0F8",
"h c #B0E0E0",
"j c #000038",
"k c #F8B070",
"l c #E07038",
"z c #F87038",
"x c #3838B0",
"c c #E07070",
"v c #E03838",
"b c #F83838",
"n c #B03838",
"m c #7070B0",
"M c #003838",
"N c #003870",
"B c white",
/* pixels */
" .XX.X.. .XX.X....X.XX. ..X.XX. ",
" XXXX.X. XXXX.X..X.XXXX .X.XXXX ",
" XXX.X.. XXX.X....X.XXX ..X.XXX ",
" .X.X... .X.XoO....X.X. ...X.X. ",
" X.X...+ X.X..@#+...X.X +...X.X ",
"X.X....+X.X...O$+....X.X+....X.X",
" ....+++ ...%&&*&&$$*=# +++.... ",
"- X X XX- X&$;$&$$$:$% -XX X X -",
".X.. .XX.X>=,$$&$**=,*X.XX. ..X.",
"X.X. XXXX.O$<O$,,****=.XXXX .X.X",
".X.. XXX.#$12=O1131$,$#.XXX ..X.",
"X... .X.X#$;*,334311,$#X.X. ...X",
"...+ X.X.5$$,1,3361,2$7.X.X +...",
"...+ .X..o&=*,$11$,,8*<..X. +...",
".+++ ....@*$$$,,,,$$&*@.... +++.",
"X XX  X X90qw&$$$$&&qer3oX  XX X",
" .XX.X.. .Xtyqwwwwq7uXte2.X.XX. ",
" XXXX.X. X=ip7aaa77psty .X.XXXX ",
" XXX.X.. X=2dpfgfh90tjX ..X.XXX ",
" .X.X... .te#OkOlkz=7t. ...X.X. ",
" X.X...+ txt7rclvbvwtxt +...X.X ",
"X.X....+Xttt77elvnwytxtX+....X.X",
" ....+++ %e7u>vvn5mu7e% +++.... ",
"- X X XXe8O#lvvriisue88eXX X X -",
".X.. .XXe>OvvntttxyM88>5XX. ..X.",
"X.X. XXXX#*vn7tttttNB##XXXX .X.X",
".X.. XXX.X..NtxttxtN..X.XXX ..X.",
"X... .X.X...7e0ee057...X.X. ...X",
"...+ X.X...+%#>#%>%%+...X.X +...",
"...+ .X....+%*>ee>#%+....X. +...",
".+++ ....+++5*oe>1>5+++.... +++.",
"X XX  X X XX d8dd8dBXX X X  XX X"
};
