/* XPM */
static char *_ad5ac8baf954ac190bf3657a14e402fE4vheLluwNgmzPxG[] = {
/* columns rows colors chars-per-pixel */
"32 32 13 1 ",
"  c #608860",
". c #889860",
"X c #A0A860",
"o c #C0C070",
"O c #3010A0",
"+ c #6020C0",
"@ c #A858B0",
"# c #C868A0",
"$ c #8048C0",
"% c #D88890",
"& c #D0D090",
"* c #E0E0A0",
"= c #E0E0C0",
/* pixels */
"+..          ..++..          ..+",
" &oooooooooooo&  &oooooooooooo& ",
".=************=..=************=.",
"+X.          .X++X.          .X+",
"+X.          .X++X.          .X+",
"+X............X++X............X+",
"OOOOOOOOOOOOOOOOOOOOOOOOOOOOOOOO",
"O+O+O+O++O+O+O+OO+O+O+O++O+O+O+O",
"$$$@+@@$$$$@+@@$$$$@+@@$$@@+@$$$",
"@$@@+@@@@$@@+@@@@$@@+@@@@@@+@@$@",
"O+++O+++O+++O+++O+++O++++++O+++O",
"+#@@#@#%+#@@#@#%+#@@#@#%%#@#@@#+",
"+$$$$@$@+$$$$@$@+$$$$@$@@$@$$$$+",
"O@$$@$@@O@$$@$@@O@$$@$@@@@$@$$@O",
"O+++O+++O+++O+++O+++O++++++O+++O",
"@#@#+#@@@#@#+#@@@#@#+#@@@@#+#@#@",
"$$$@+@@$$$$@+@@$$$$@+@@$$@@+@$$$",
"@$@@+@@@@$@@+@@@@$@@+@@@@@@+@@$@",
"O+++O+++O+++O+++O+++O++++++O+++O",
"+#@@#@#%+#@@#@#%+#@@#@#%%#@#@@#+",
"+$$$$@$@+$$$$@$@+$$$$@$@@$@$$$$+",
"O@$$@$@@O@$$@$@@O@$$@$@@@@$@$$@O",
"O+++O+++O+++O+++O+++O++++++O+++O",
"@#@#+#@@@#@#+#@@@#@#+#@@@@#+#@#@",
"$$$@+$$$$$$@+$$$$$$@+$$$$$$+@$$$",
"@$@@+@$$@$@@+@$$@$@@+@$$$$@+@@$@",
"O+++O+++O+++O+++O+++O++++++O+++O",
"+#@@#@#%+#@@#@#%+#@@#@#%%#@#@@#+",
"+$$$$@$@+$$$$@$@+$$$$@$@@$@$$$$+",
"O@$$@$@@O@$$@$@@O@$$@$@@@@$@$$@O",
"O+++O+++O+++O+++O+++O++++++O+++O",
"OOOOOOOOOOOOOOOOOOOOOOOOOOOOOOOO"
};
